# xmcd
#
# Track frame offsets:
#	150
#	18772
#	36126
#	59505
#	78440
#
# Disc length: 1283 seconds
# Revision: 0
# Processed by: cddbd v1.5.2PL0 Copyright (c) Steve Scherf et al.
# Submitted via: dBpowerAMP V12.0
#
DISCID=33050105
DTITLE=The Infamous Stringdusters - Undercover Vol. 2
DYEAR=2017
DGENRE=Bluegrass
TTITLE0=Just Like Heaven
TTITLE1=Golden
TTITLE2=Jessica
TTITLE3=What's Going On?
TTITLE4=Get Lucky
EXTD=
EXTT0=
EXTT1=
EXTT2=
EXTT3=
EXTT4=
PLAYORDER=
